Coordinates
version=1
nRows=20
nColumns=38
inDegrees=no

Units are S.I. units (second, meters, Newtons, ...)
If the header above contains a line with 'inDegrees', this indicates whether rotational values are in degrees (yes) or radians (no).

endheader
time	pelvis_tilt	pelvis_list	pelvis_rotation	pelvis_tx	pelvis_ty	pelvis_tz	hip_flexion_r	hip_adduction_r	hip_rotation_r	knee_angle_r	ankle_angle_r	subtalar_angle_r	mtp_angle_r	hip_flexion_l	hip_adduction_l	hip_rotation_l	knee_angle_l	ankle_angle_l	subtalar_angle_l	mtp_angle_l	lumbar_extension	lumbar_bending	lumbar_rotation	arm_flex_r	arm_add_r	arm_rot_r	elbow_flex_r	pro_sup_r	wrist_flex_r	wrist_dev_r	arm_flex_l	arm_add_l	arm_rot_l	elbow_flex_l	pro_sup_l	wrist_flex_l	wrist_dev_l
0	3.00001	1.23879	-1.43982	0.608724	-0.0100728	0.935318	-0.523599	-0.0247427	-0.139261	0.623418	-0.270018	0	0	-0.0079356	-0.0812129	-0.462236	0.381982	-0.305489	0	0	-0.528885	0.0534059	-0.0848238	-0.209339	-0.130659	-0.426431	0.854294	0.631242	0	0	-0.299993	-0.274001	-0.035744	0.832868	1.47305	0	0
0.01	3.00575	1.23057	-1.43903	0.606483	0.00290758	0.936466	-0.523599	-0.0272595	-0.130001	0.655579	-0.285715	0	0	-0.0278634	-0.0800657	-0.465254	0.386367	-0.309425	0	0	-0.535028	0.0579239	-0.0720824	-0.238168	-0.135497	-0.429663	0.879074	0.598943	0	0	-0.290986	-0.280271	-0.0148808	0.829626	1.46124	0	0
0.02	3.01671	1.22144	-1.44203	0.604203	0.016042	0.937836	-0.523599	-0.0310963	-0.12263	0.691061	-0.312546	0	0	-0.0477368	-0.0789685	-0.467741	0.396526	-0.307917	0	0	-0.541668	0.0610746	-0.0665431	-0.261038	-0.139758	-0.430335	0.897342	0.570304	0	0	-0.284804	-0.287332	0.00415799	0.82687	1.44981	0	0
0.03	3.03278	1.21022	-1.44973	0.602017	0.0288977	0.939584	-0.523599	-0.0367301	-0.117701	0.728292	-0.348588	0	0	-0.0702281	-0.0770484	-0.470827	0.407913	-0.302755	0	0	-0.550077	0.0621636	-0.0659766	-0.278578	-0.143284	-0.429128	0.910829	0.54527	0	0	-0.281049	-0.29477	0.0199945	0.826463	1.43781	0	0
0.04	3.072	1.17602	-1.4715	0.599567	0.0430159	0.943093	-0.523599	-0.0410558	-0.111409	0.745145	-0.389057	0	0	-0.119054	-0.0717733	-0.47711	0.422252	-0.296421	0	0	-0.569012	0.0599914	-0.0760008	-0.297741	-0.149327	-0.429355	0.919394	0.524963	0	0	-0.278645	-0.304394	0.0322877	0.830779	1.42629	0	0
0.05	3.08755	1.1644	-1.48151	0.59782	0.0547324	0.94519	-0.523599	-0.0486525	-0.108192	0.786633	-0.434016	0	0	-0.145305	-0.0684727	-0.479644	0.42541	-0.289992	0	0	-0.581067	0.0584046	-0.0791527	-0.307262	-0.151669	-0.425296	0.930227	0.507125	0	0	-0.277135	-0.312674	0.043334	0.836856	1.41468	0	0
0.06	3.10374	1.15471	-1.49319	0.596195	0.0661376	0.947044	-0.523599	-0.0582074	-0.105944	0.833877	-0.493095	0	0	-0.171053	-0.0630862	-0.479718	0.424023	-0.280991	0	0	-0.591539	0.0557388	-0.0820641	-0.316715	-0.156045	-0.417087	0.941609	0.484552	0	0	-0.274532	-0.322956	0.0589869	0.843999	1.39698	0	0
0.07	3.11607	1.1444	-1.50053	0.594505	0.0772924	0.948851	-0.523599	-0.0661858	-0.105366	0.875768	-0.578201	0	0	-0.19852	-0.0583202	-0.477298	0.419194	-0.265516	0	0	-0.60269	0.0549583	-0.0832387	-0.334738	-0.192385	-0.348561	0.956492	0.381494	0	0	-0.265361	-0.352275	0.1234	0.854229	1.3214	0	0
0.08	3.1251	1.14278	-1.50565	0.592995	0.0883903	0.949992	-0.502036	-0.0737248	-0.103432	0.927513	-0.597045	0	0	-0.215766	-0.0541188	-0.475181	0.415289	-0.260489	0	0	-0.603225	0.0538294	-0.0894898	-0.337547	-0.193928	-0.345809	0.960477	0.378568	0	0	-0.262992	-0.357099	0.126068	0.857217	1.32117	0	0
0.09	3.13012	1.14408	-1.50767	0.591593	0.0993014	0.950855	-0.46849	-0.0804802	-0.102147	0.9809	-0.617623	0	0	-0.229662	-0.0510945	-0.47327	0.41123	-0.252483	0	0	-0.600972	0.0538694	-0.0944236	-0.339969	-0.195728	-0.343405	0.963798	0.375702	0	0	-0.258633	-0.36199	0.130873	0.859051	1.32052	0	0
0.1	3.13048	1.14695	-1.5048	0.590242	0.109836	0.95159	-0.431466	-0.084926	-0.10089	1.03371	-0.620268	0	0	-0.241012	-0.0503047	-0.471297	0.40746	-0.244481	0	0	-0.59773	0.0560663	-0.0991762	-0.341158	-0.19711	-0.342141	0.966605	0.373143	0	0	-0.252303	-0.366566	0.136099	0.860326	1.31874	0	0
0.11	3.12753	1.1497	-1.49803	0.588842	0.120012	0.952378	-0.39448	-0.0874929	-0.100784	1.08184	-0.606321	0	0	-0.252142	-0.0506444	-0.46747	0.402128	-0.23722	0	0	-0.595228	0.0601443	-0.103972	-0.341228	-0.198423	-0.341501	0.968968	0.37068	0	0	-0.244177	-0.3713	0.142515	0.860988	1.31848	0	0
0.12	3.1211	1.15182	-1.48775	0.58747	0.130004	0.953276	-0.358431	-0.0885957	-0.101701	1.12438	-0.583716	0	0	-0.264195	-0.0524712	-0.46351	0.395013	-0.231068	0	0	-0.59367	0.0657928	-0.10815	-0.340996	-0.200178	-0.340523	0.970907	0.368965	0	0	-0.234891	-0.375739	0.148991	0.86122	1.32097	0	0
0.13	3.11209	1.15345	-1.47505	0.586134	0.13983	0.954275	-0.323619	-0.0879741	-0.102338	1.16077	-0.559149	0	0	-0.277096	-0.0554403	-0.45996	0.386375	-0.226184	0	0	-0.592866	0.0725008	-0.111804	-0.340442	-0.202427	-0.339003	0.972257	0.367963	0	0	-0.224633	-0.379406	0.154324	0.861037	1.32553	0	0
0.14	3.10192	1.15484	-1.46143	0.584846	0.149527	0.955356	-0.289704	-0.0861332	-0.102468	1.19131	-0.53542	0	0	-0.290579	-0.0588927	-0.457002	0.37672	-0.222388	0	0	-0.592406	0.0796491	-0.115276	-0.339244	-0.205198	-0.336779	0.972529	0.367621	0	0	-0.213367	-0.38207	0.158072	0.860034	1.33031	0	0
0.15	3.0918	1.15568	-1.44781	0.583617	0.15915	0.956499	-0.256758	-0.0840913	-0.10309	1.21629	-0.513719	0	0	-0.305058	-0.0622772	-0.454042	0.366214	-0.219174	0	0	-0.592289	0.0869006	-0.119046	-0.337005	-0.207543	-0.335402	0.971672	0.366273	0	0	-0.201449	-0.384222	0.160699	0.858673	1.33406	0	0
0.16	3.08201	1.15559	-1.43447	0.582423	0.168715	0.957667	-0.225728	-0.0817338	-0.103808	1.23418	-0.499232	0	0	-0.320693	-0.0657306	-0.451823	0.35583	-0.216793	0	0	-0.592981	0.0942238	-0.122625	-0.33501	-0.209944	-0.334016	0.970969	0.365871	0	0	-0.189196	-0.386548	0.163598	0.858037	1.33755	0	0
0.17	3.07276	1.15596	-1.42119	0.581245	0.178269	0.958709	-0.195033	-0.0794636	-0.105388	1.24648	-0.484273	0	0	-0.335646	-0.068938	-0.448158	0.345775	-0.213639	0	0	-0.592975	0.101508	-0.12602	-0.333588	-0.212506	-0.332278	0.970165	0.365769	0	0	-0.176324	-0.389209	0.167133	0.857914	1.34212	0	0
0.18	3.06339	1.15623	-1.40757	0.580052	0.18779	0.959621	-0.165859	-0.0768341	-0.107631	1.25261	-0.471442	0	0	-0.350243	-0.0724844	-0.444258	0.336584	-0.210368	0	0	-0.592863	0.109002	-0.129341	-0.33256	-0.215115	-0.330802	0.969849	0.366083	0	0	-0.163582	-0.392188	0.170671	0.859478	1.34664	0	0
0.19	3.05311	1.15679	-1.39326	0.578843	0.197353	0.960372	-0.13781	-0.0738042	-0.109977	1.25311	-0.457595	0	0	-0.364311	-0.0763268	-0.439727	0.327383	-0.206616	0	0	-0.592169	0.116901	-0.131855	-0.331804	-0.217913	-0.329482	0.969551	0.366486	0	0	-0.150421	-0.394409	0.173257	0.861436	1.35035	0	0
